<svg width="64" height="64" viewBox="0 0 64 64" fill="none" xmlns="http://www.w3.org/2000/svg">
  <rect width="64" height="64" rx="15" fill="#1E3A8F"/>
  <path d="M0 16H64M0 32H64M0 48H64M16 0V64M32 0V64M48 0V64" stroke="#EFE8D6" stroke-opacity="0.09" stroke-width="1"/>
  <rect x="25" y="12" width="14" height="23" rx="7" stroke="#EFE8D6" stroke-width="2.8"/>
  <path d="M28.5 18.5H35.5M28.5 23.5H35.5M28.5 28.5H35.5" stroke="#EFE8D6" stroke-opacity="0.5" stroke-width="1.5"/>
  <path d="M21 30C21 36.1 25.9 41 32 41C38.1 41 43 36.1 43 30" stroke="#EFE8D6" stroke-width="2.6" stroke-linecap="round"/>
  <path d="M32 41V49" stroke="#EFE8D6" stroke-width="2.6" stroke-linecap="round"/>
  <path d="M25.5 49H38.5" stroke="#EFE8D6" stroke-width="2.6" stroke-linecap="round"/>
  <path d="M13 27V37" stroke="#EFE8D6" stroke-opacity="0.55" stroke-width="2.6" stroke-linecap="round"/>
  <path d="M51 27V37" stroke="#EFE8D6" stroke-opacity="0.55" stroke-width="2.6" stroke-linecap="round"/>
</svg>
